Coordinates
version=1
nRows=12
nColumns=42
inDegrees=yes

Units are S.I. units (second, meters, Newtons, ...)
If the header above contains a line with 'inDegrees', this indicates whether rotational values are in degrees (yes) or radians (no).

endheader
time	pelvis_tilt	pelvis_list	pelvis_rotation	pelvis_tx	pelvis_ty	pelvis_tz	hip_flexion_r	hip_adduction_r	hip_rotation_r	knee_angle_r	knee_angle_r_beta	ankle_angle_r	subtalar_angle_r	mtp_angle_r	hip_flexion_l	hip_adduction_l	hip_rotation_l	knee_angle_l	knee_angle_l_beta	ankle_angle_l	subtalar_angle_l	mtp_angle_l	lumbar_extension	lumbar_bending	lumbar_rotation	sh_tx_r	sh_ty_r	sh_tz_r	sh_plane_elev_r	sh_elev_r	sh_axial_rot_r	elbow_flex_r	pro_sup_r	sh_tx_l	sh_ty_l	sh_tz_l	sh_plane_elev_l	sh_elev_l	sh_axial_rot_l	elbow_flex_l	pro_sup_l
     10.28813560	     -3.29066701	     -0.39873834	     -0.27923579	      0.24838882	      0.92932432	     -0.07184913	      2.06395178	     -4.58840231	    -11.67656321	      0.64489296	      0.01125551	      1.56672932	     -6.01616389	     -7.49999987	      0.79409065	     -4.14646203	    -11.79425417	      1.52623372	      0.02663780	      7.28596925	      1.35447631	     -7.49999987	      2.01986584	      2.41288439	     -3.57097167	     -0.01519578	     -0.01225823	     -0.00594074	    -18.62284130	      6.18266252	      5.56047136	     30.61676493	    112.87903464	     -0.02174503	      0.00740039	     -0.00472668	     52.60039587	     69.42986561	     -8.64748758	      9.74757177	      2.13127335
     10.30508480	     -3.52619226	     -0.37122367	     -0.33028680	      0.24799465	      0.92874960	     -0.07196420	      2.63199150	     -4.69832330	    -11.63211390	      1.25248833	      0.02186005	      1.63252665	     -6.40515378	     -7.49999987	      1.34596559	     -4.18652416	    -12.05472672	      2.13519328	      0.03726615	      7.67941550	      1.47459607	     -7.49999987	      2.51499337	      2.74738182	     -4.11899406	     -0.01091527	     -0.00943013	     -0.00565460	    -17.24626048	      6.64585015	      6.80097868	     30.31323548	    105.04268631	     -0.01746784	      0.00822563	     -0.00496156	     50.27041137	     68.20178272	    -12.98304652	     13.06295508	      4.82025787
     10.32203390	     -3.59724977	     -0.35856262	     -0.39856752	      0.24818155	      0.92907215	     -0.07185032	      2.72222629	     -4.71615075	    -11.69866776	      1.30197798	      0.02272380	      1.59196954	     -6.43657149	     -7.49999987	      1.38551728	     -4.18916534	    -12.07811774	      2.10314631	      0.03670683	      7.60281317	      1.36543967	     -7.49999987	      2.56005866	      2.82872047	     -4.13975399	     -0.01052112	     -0.00953451	     -0.00566913	    -16.67602120	      6.76394648	      6.16915229	     30.27239462	    104.67537604	     -0.01629971	      0.00822756	     -0.00500733	     49.81175103	     67.73923415	    -16.57129857	     13.79769285	      4.84366441
     10.33898300	     -3.33465844	     -0.34430213	     -0.45789848	      0.24874051	      0.92943252	     -0.07174487	      2.17786058	     -4.67965550	    -11.55079762	      0.81900343	      0.01429431	      1.09106136	     -6.89025569	     -7.49999987	      0.76257443	     -4.13679346	    -12.15308622	      1.53790760	      0.02684155	      7.36090232	      1.47777218	     -7.49999987	      1.86079557	      2.52127664	     -3.71191345	     -0.01370242	     -0.01263381	     -0.00591399	    -19.04106587	      6.43299168	      5.51479291	     31.41562843	    113.31420238	     -0.02080933	      0.00518682	     -0.00475079	     51.80204520	     68.16114721	     -7.71716730	      9.09307520	      2.18148773
     10.35593220	     -3.32865515	     -0.33152721	     -0.49149679	      0.24884350	      0.92992105	     -0.07159956	      2.20668198	     -4.70587827	    -11.54524872	      0.89075076	      0.01554653	      0.89880047	     -7.20958703	     -7.49999987	      0.73844428	     -4.12372000	    -12.26593693	      1.52830659	      0.02667398	      7.29162016	      1.40397672	     -7.49999987	      1.80715087	      2.55318527	     -3.61011212	     -0.01502735	     -0.01257544	     -0.00597796	    -19.40188300	      6.32316929	      5.72492069	     31.47091909	    113.21396386	     -0.02102670	      0.00511435	     -0.00482545	     51.72798565	     67.51116892	     -8.07087840	      9.34110734	      2.19514739
     10.37288140	     -3.66967226	     -0.35057566	     -0.57124519	      0.24834451	      0.92898336	     -0.07182877	      2.94988465	     -4.79347582	    -11.61718335	      1.60164781	      0.02795403	      1.22764813	     -7.08347408	     -7.49999987	      1.39761161	     -4.20633117	    -12.24009967	      2.15850108	      0.03767295	      7.54513435	      1.16846428	     -7.49999987	      2.48875228	      2.95151491	     -4.31874973	     -0.01171423	     -0.00919578	     -0.00566203	    -18.56943031	      6.51464106	      6.70407479	     31.37149644	    106.49096599	     -0.01809751	      0.00704396	     -0.00502582	     49.47043762	     66.09515774	    -10.85050130	     11.79279714	      5.39476007
     10.38983050	     -3.36572302	     -0.33829808	     -0.53140590	      0.24895975	      0.92981580	     -0.07164877	      2.28957470	     -4.76980227	    -11.50379047	      1.03007391	      0.01797818	      0.77595104	     -7.40697059	     -7.49999987	      0.73503643	     -4.10489035	    -12.31196127	      1.48389813	      0.02589891	      7.29760584	      1.26303380	     -7.49999987	      1.91235298	      2.62018234	     -3.69182591	     -0.01425673	     -0.01229771	     -0.00602780	    -19.06372554	      6.38669514	      5.39762381	     31.57146346	    113.34864135	     -0.02081596	      0.00591762	     -0.00495019	     51.38349019	     66.05445025	     -9.15841563	      9.22728126	      2.26318319
     10.40677970	     -3.43144122	     -0.33642422	     -0.55219383	      0.24895141	      0.92949724	     -0.07166744	      2.35812645	     -4.80560745	    -11.63720900	      1.05876320	      0.01847890	      0.77956449	     -7.27898780	     -7.49999987	      0.78053286	     -4.10457604	    -12.34319470	      1.45937216	      0.02547085	      7.21161907	      1.08969723	     -7.49999987	      2.03843055	      2.61975446	     -3.70414716	     -0.01363413	     -0.01215192	     -0.00600125	    -18.53849234	      6.42459330	      5.04557305	     31.37305605	    113.17793687	     -0.01979935	      0.00630032	     -0.00496719	     51.34383393	     65.14264153	     -9.22642003	      9.06671975	      2.28083435
     10.42372880	     -3.45698673	     -0.33242615	     -0.59338697	      0.24900525	      0.92968776	     -0.07150313	      2.38735006	     -4.84162701	    -11.67766080	      1.07872560	      0.01882731	      0.85610736	     -7.10526196	     -7.49999987	      0.75666164	     -4.10963354	    -12.51296741	      1.39921552	      0.02442092	      7.26647355	      1.22678134	     -7.49999987	      2.11923698	      2.57655925	     -3.76432598	     -0.01403125	     -0.01214981	     -0.00603978	    -16.21806487	      6.55849339	      3.26810921	     30.99077895	    112.23503192	     -0.01931830	      0.00796392	     -0.00511016	     50.87799873	     64.24608272	    -15.44681316	     11.88649427	      2.48922099
     10.44067800	     -3.49138073	     -0.34223669	     -0.69291662	      0.24895989	      0.92941728	     -0.07155520	      2.45646861	     -4.84521214	    -11.69603744	      1.08192208	      0.01888310	      0.86444806	     -7.10365927	     -7.49999987	      0.77120140	     -4.09637450	    -12.65134678	      1.36345133	      0.02379671	      7.30320061	      1.18302261	     -7.49999987	      2.23838379	      2.48838678	     -3.60026769	     -0.01344889	     -0.01222394	     -0.00604013	    -18.07404311	      6.42647268	      4.71585109	     31.26093133	    112.93284907	     -0.01891680	      0.00745404	     -0.00502591	     51.12397624	     63.71245034	    -10.13638775	     10.25217518	      2.25643478
     10.45762710	     -3.78813222	     -0.34664081	     -0.83265299	      0.24855652	      0.92918712	     -0.07151699	      3.13747857	     -4.91678870	    -11.87284817	      1.68023836	      0.02932569	      1.25072815	     -6.78919109	     -7.49999987	      1.32686926	     -4.14415061	    -12.80368925	      1.87114673	      0.03265767	      7.55778438	      1.12180910	     -7.49999987	      2.83998699	      2.75306257	     -4.36444502	     -0.01051887	     -0.00915528	     -0.00573622	    -16.42221553	      6.57661925	      5.42986503	     30.61138564	    105.93522073	     -0.01541367	      0.00964480	     -0.00507045	     48.70390808	     62.32613998	    -15.15487322	     14.25594217	      5.01894650
     10.47457630	     -3.77308861	     -0.35666723	     -0.87168448	      0.24849470	      0.92898366	     -0.07157317	      3.14762302	     -4.90669364	    -12.18963021	      1.68843105	      0.02946868	      1.42418060	     -6.29028464	     -7.49999987	      1.29357859	     -4.13435223	    -12.83825607	      1.85250098	      0.03233224	      7.46697592	      0.85811320	     -7.49999987	      2.94232688	      2.78664009	     -4.98475577	     -0.00854622	     -0.00910084	     -0.00574325	    -14.90772244	      6.65420838	      5.57268081	     30.45634362	    102.25664162	     -0.01606519	      0.01029059	     -0.00511646	     48.09411646	     61.76073634	    -18.67806929	     15.30621887	      5.20637632
